# xmcd
#
# Track frame offsets: 
#        150
#        10939
#        20382
#        30333
#        40573
#        50067
#        58921
#        69105
#        78565
#        89411
#        99784
#        110783
#        121629
#        129901
#        139789
#        148514
#        157755
#        168054
#        179234
#        191038
#
# Disc length: 2688 seconds
#
# Revision: 0
# Processed by: cddbd v1.5.2PL0 Copyright (c) Steve Scherf et al.
# Submitted via: ExactAudioCopyFreeDBPlugin 1.0
#
DISCID=fe0a7e14
DTITLE=Everly Brothers - Everly Brothers 100 Hits CD1
DYEAR=1900
DGENRE=Pop
TTITLE0=Bye Bye Love
TTITLE1=Wake up little Susie
TTITLE2=Claudette
TTITLE3=Bird Dog
TTITLE4=Should we tell him
TTITLE5=Problems
TTITLE6=his little girl of mine
TTITLE7=Love of my life
TTITLE8=Devoted to you
TTITLE9=Poor Jenny
TTITLE10=Take a message mary
TTITLE11=I kissed you
TTITLE12=Carol Jane
TTITLE13=Just in Case
TTITLE14=Since you broke my heart
TTITLE15=When will I be loved
TTITLE16=Be-bop- a lula
TTITLE17=Always it's you
TTITLE18=Let it be me
TTITLE19=All I Have To Do Is Dream
EXTD=
EXTT0=
EXTT1=
EXTT2=
EXTT3=
EXTT4=
EXTT5=
EXTT6=
EXTT7=
EXTT8=
EXTT9=
EXTT10=
EXTT11=
EXTT12=
EXTT13=
EXTT14=
EXTT15=
EXTT16=
EXTT17=
EXTT18=
EXTT19=
PLAYORDER=
